<svg width="521" height="488" viewBox="0 0 521 488" fill="none" xmlns="http://www.w3.org/2000/svg">
<path d="M0 100L91.5 140L87 150.5L132.5 172.5L156.5 185L167.5 192L178.5 199L195.5 212.25L210.764 224.147C211.919 225.047 213 226.041 213.994 227.116L227.75 242L243 258.5L258 237.5L274 258.5L301.737 227.989C303.243 226.332 304.882 224.802 306.638 223.413L337.5 199L358.5 185L381.5 172.5L430.5 150.5L425 140L518 100C518 100 523.231 181.628 518 233.5C517.013 243.284 516.52 248.785 515 258.5C512.027 277.5 509.804 288.166 504 306.5C496.611 329.844 491.618 343.016 479 364C467.951 382.375 445.5 407.5 445.5 407.5L404 441L367 462.5L342 471.75L317 481L262.762 487.435C259.599 487.81 256.402 487.797 253.243 487.395L209.458 481.822C205.165 481.275 200.94 480.281 196.853 478.854L150 462.5L113 441L74 407.5L65.5 396.625L57 385.75L41.9495 366.494C40.6534 364.836 39.5355 363.046 38.614 361.154L26 335.25L14 306.5L8 282.5L3 258.5L0 233.5V100Z" fill="#0B3448"/>
<path d="M31 146.5L78 166L86.5 150L147.5 180.5L174 195L197.5 213.5L220.5 232.5L242.5 258L257.5 238L274 258L297 232.5L318 213.5L352.5 189L429 150L439.5 166L487 146.5V235L479.5 273.5L468 312L451.5 345.5L424.5 381L392 411.5L349 435L314.5 451.5L282.5 458L259.5 459L242 458L226 456.5L203 451.5L167 435L126 411.5L93.5 381L69.5 349.5L49.5 312L37.5 273.5L31 235V146.5Z" fill="url(#paint0_linear_664_18)"/>
<path d="M414.479 60.8914C326.724 -20.312 190.241 -20.2823 102.521 60.8914C99.2219 63.9439 99.1575 69.1124 102.347 72.2788L119.307 89.1122C122.348 92.135 127.242 92.1994 130.402 89.3005C202.678 23.0573 314.312 23.0424 386.602 89.3005C389.763 92.1994 394.656 92.13 397.697 89.1122L414.657 72.2788C417.842 69.1124 417.777 63.9439 414.479 60.8914ZM258.5 158.571C240.99 158.571 226.8 172.769 226.8 190.286C226.8 207.803 240.99 222 258.5 222C276.009 222 290.2 207.803 290.2 190.286C290.2 172.769 276.009 158.571 258.5 158.571ZM358.885 117.15C301.795 66.6396 215.14 66.6942 158.115 117.15C154.697 120.172 154.588 125.42 157.832 128.621L174.891 145.464C177.863 148.398 182.647 148.596 185.813 145.861C227.394 109.9 289.699 109.979 331.182 145.861C334.347 148.596 339.132 148.403 342.104 145.464L359.162 128.621C362.411 125.42 362.297 120.167 358.885 117.15Z" fill="#0B3446"/>
<defs>
<linearGradient id="paint0_linear_664_18" x1="259" y1="146.5" x2="259" y2="459" gradientUnits="userSpaceOnUse">
<stop stop-color="#36C494"/>
<stop offset="1" stop-color="#083143"/>
</linearGradient>
</defs>
</svg>
