<svg width="2320" height="488" viewBox="0 0 2320 488" fill="none" xmlns="http://www.w3.org/2000/svg">
<path d="M0 100L91.5 140L87 150.5L132.5 172.5L156.5 185L167.5 192L178.5 199L195.5 212.25L210.764 224.147C211.919 225.047 213 226.041 213.994 227.116L227.75 242L243 258.5L258 237.5L274 258.5L301.737 227.989C303.243 226.332 304.882 224.802 306.638 223.413L337.5 199L358.5 185L381.5 172.5L430.5 150.5L425 140L518 100C518 100 523.231 181.628 518 233.5C517.013 243.284 516.52 248.785 515 258.5C512.027 277.5 509.804 288.166 504 306.5C496.611 329.844 491.618 343.016 479 364C467.951 382.375 445.5 407.5 445.5 407.5L404 441L367 462.5L342 471.75L317 481L262.762 487.435C259.599 487.81 256.402 487.797 253.243 487.395L209.458 481.822C205.165 481.275 200.94 480.281 196.853 478.854L150 462.5L113 441L74 407.5L65.5 396.625L57 385.75L41.9495 366.494C40.6534 364.836 39.5355 363.046 38.614 361.154L26 335.25L14 306.5L8 282.5L3 258.5L0 233.5V100Z" fill="#0B3448"/>
<path d="M31 146.5L78 166L86.5 150L147.5 180.5L174 195L197.5 213.5L220.5 232.5L242.5 258L257.5 238L274 258L297 232.5L318 213.5L352.5 189L429 150L439.5 166L487 146.5V235L479.5 273.5L468 312L451.5 345.5L424.5 381L392 411.5L349 435L314.5 451.5L282.5 458L259.5 459L242 458L226 456.5L203 451.5L167 435L126 411.5L93.5 381L69.5 349.5L49.5 312L37.5 273.5L31 235V146.5Z" fill="url(#paint0_linear_664_18)"/>
<path d="M414.479 60.8914C326.724 -20.312 190.241 -20.2823 102.521 60.8914C99.2219 63.9439 99.1575 69.1124 102.347 72.2788L119.307 89.1122C122.348 92.135 127.242 92.1994 130.402 89.3005C202.678 23.0573 314.312 23.0424 386.602 89.3005C389.763 92.1994 394.656 92.13 397.697 89.1122L414.657 72.2788C417.842 69.1124 417.777 63.9439 414.479 60.8914ZM258.5 158.571C240.99 158.571 226.8 172.769 226.8 190.286C226.8 207.803 240.99 222 258.5 222C276.009 222 290.2 207.803 290.2 190.286C290.2 172.769 276.009 158.571 258.5 158.571ZM358.885 117.15C301.795 66.6396 215.14 66.6942 158.115 117.15C154.697 120.172 154.588 125.42 157.832 128.621L174.891 145.464C177.863 148.398 182.647 148.596 185.813 145.861C227.394 109.9 289.699 109.979 331.182 145.861C334.347 148.596 339.132 148.403 342.104 145.464L359.162 128.621C362.411 125.42 362.297 120.167 358.885 117.15Z" fill="#0B3446"/>
<path d="M675.548 286.378C674.98 280.649 672.542 276.198 668.233 273.026C663.924 269.853 658.077 268.267 650.69 268.267C645.671 268.267 641.434 268.977 637.977 270.398C634.521 271.771 631.869 273.688 630.023 276.151C628.223 278.613 627.324 281.406 627.324 284.531C627.229 287.135 627.774 289.408 628.957 291.349C630.188 293.291 631.869 294.972 634 296.392C636.131 297.765 638.593 298.973 641.386 300.014C644.18 301.009 647.163 301.861 650.335 302.571L663.403 305.696C669.748 307.116 675.572 309.01 680.875 311.378C686.178 313.745 690.771 316.657 694.653 320.114C698.536 323.57 701.543 327.642 703.673 332.33C705.851 337.017 706.964 342.391 707.011 348.452C706.964 357.353 704.691 365.071 700.193 371.605C695.742 378.092 689.303 383.134 680.875 386.733C672.494 390.284 662.385 392.06 650.548 392.06C638.806 392.06 628.579 390.26 619.866 386.662C611.202 383.063 604.431 377.737 599.554 370.682C594.724 363.58 592.191 354.796 591.955 344.332H621.713C622.045 349.209 623.441 353.281 625.903 356.548C628.413 359.768 631.751 362.206 635.918 363.864C640.132 365.473 644.89 366.278 650.193 366.278C655.402 366.278 659.923 365.521 663.759 364.006C667.641 362.491 670.648 360.384 672.778 357.685C674.909 354.986 675.974 351.884 675.974 348.381C675.974 345.114 675.004 342.367 673.062 340.142C671.169 337.917 668.375 336.023 664.682 334.46C661.036 332.898 656.562 331.477 651.259 330.199L635.42 326.222C623.157 323.239 613.474 318.575 606.372 312.23C599.27 305.885 595.742 297.339 595.79 286.591C595.742 277.784 598.086 270.09 602.821 263.509C607.603 256.927 614.161 251.79 622.494 248.097C630.828 244.403 640.297 242.557 650.903 242.557C661.699 242.557 671.121 244.403 679.17 248.097C687.267 251.79 693.564 256.927 698.062 263.509C702.561 270.09 704.881 277.713 705.023 286.378H675.548ZM727.129 390V280.909H755.964V300.156H757.242C759.515 293.764 763.303 288.722 768.606 285.028C773.909 281.335 780.254 279.489 787.64 279.489C795.121 279.489 801.489 281.359 806.745 285.099C812.001 288.793 815.505 293.812 817.256 300.156H818.393C820.618 293.906 824.643 288.911 830.467 285.17C836.338 281.383 843.274 279.489 851.276 279.489C861.456 279.489 869.719 282.732 876.063 289.219C882.455 295.658 885.651 304.796 885.651 316.634V390H855.467V322.599C855.467 316.539 853.857 311.993 850.637 308.963C847.417 305.933 843.393 304.418 838.563 304.418C833.071 304.418 828.786 306.17 825.708 309.673C822.63 313.13 821.092 317.699 821.092 323.381V390H791.759V321.96C791.759 316.61 790.22 312.348 787.143 309.176C784.112 306.004 780.112 304.418 775.14 304.418C771.778 304.418 768.748 305.27 766.049 306.974C763.397 308.632 761.29 310.975 759.728 314.006C758.165 316.989 757.384 320.492 757.384 324.517V390H727.129ZM940.658 392.06C933.698 392.06 927.496 390.852 922.05 388.438C916.605 385.975 912.297 382.353 909.124 377.571C905.999 372.741 904.437 366.728 904.437 359.531C904.437 353.471 905.549 348.381 907.775 344.261C910 340.142 913.031 336.828 916.866 334.318C920.701 331.809 925.057 329.915 929.934 328.636C934.858 327.358 940.019 326.458 945.417 325.938C951.762 325.275 956.875 324.659 960.758 324.091C964.64 323.475 967.458 322.576 969.21 321.392C970.961 320.208 971.837 318.456 971.837 316.136V315.71C971.837 311.212 970.417 307.732 967.576 305.27C964.782 302.808 960.805 301.577 955.644 301.577C950.199 301.577 945.867 302.784 942.647 305.199C939.427 307.566 937.297 310.549 936.255 314.148L908.272 311.875C909.692 305.246 912.486 299.517 916.653 294.688C920.819 289.811 926.193 286.07 932.775 283.466C939.404 280.814 947.074 279.489 955.786 279.489C961.847 279.489 967.647 280.199 973.187 281.619C978.774 283.04 983.722 285.241 988.031 288.224C992.387 291.207 995.819 295.043 998.329 299.73C1000.84 304.37 1002.09 309.934 1002.09 316.42V390H973.4V374.872H972.548C970.796 378.281 968.452 381.288 965.516 383.892C962.581 386.449 959.053 388.461 954.934 389.929C950.815 391.349 946.056 392.06 940.658 392.06ZM949.323 371.179C953.774 371.179 957.704 370.303 961.113 368.551C964.522 366.752 967.197 364.337 969.138 361.307C971.08 358.277 972.05 354.844 972.05 351.009V339.432C971.103 340.047 969.801 340.616 968.144 341.136C966.534 341.61 964.711 342.06 962.675 342.486C960.639 342.865 958.603 343.22 956.567 343.551C954.531 343.835 952.685 344.096 951.028 344.332C947.477 344.853 944.375 345.682 941.724 346.818C939.072 347.955 937.013 349.493 935.545 351.435C934.077 353.329 933.343 355.696 933.343 358.537C933.343 362.656 934.835 365.805 937.817 367.983C940.848 370.114 944.683 371.179 949.323 371.179ZM1025.57 390V280.909H1054.9V299.943H1056.03C1058.02 293.172 1061.36 288.059 1066.05 284.602C1070.74 281.098 1076.13 279.347 1082.24 279.347C1083.76 279.347 1085.39 279.441 1087.14 279.631C1088.89 279.82 1090.43 280.08 1091.76 280.412V307.259C1090.34 306.832 1088.37 306.454 1085.86 306.122C1083.35 305.791 1081.06 305.625 1078.98 305.625C1074.52 305.625 1070.55 306.596 1067.04 308.537C1063.59 310.431 1060.84 313.082 1058.8 316.491C1056.82 319.901 1055.82 323.83 1055.82 328.281V390H1025.57ZM1170.9 280.909V303.636H1105.2V280.909H1170.9ZM1120.12 254.773H1150.37V356.477C1150.37 359.271 1150.8 361.449 1151.65 363.011C1152.5 364.527 1153.69 365.592 1155.2 366.207C1156.76 366.823 1158.56 367.131 1160.6 367.131C1162.02 367.131 1163.44 367.012 1164.86 366.776C1166.28 366.491 1167.37 366.278 1168.13 366.136L1172.88 388.651C1171.37 389.124 1169.24 389.669 1166.49 390.284C1163.75 390.947 1160.41 391.349 1156.48 391.491C1149.19 391.776 1142.79 390.805 1137.3 388.58C1131.86 386.354 1127.62 382.898 1124.59 378.21C1121.56 373.523 1120.07 367.604 1120.12 360.455V254.773ZM1287.62 291.562C1286.63 288.106 1285.23 285.052 1283.43 282.401C1281.63 279.702 1279.43 277.429 1276.83 275.582C1274.27 273.688 1271.33 272.244 1268.02 271.25C1264.75 270.256 1261.13 269.759 1257.15 269.759C1249.72 269.759 1243.19 271.605 1237.55 275.298C1231.96 278.991 1227.61 284.366 1224.48 291.42C1221.36 298.428 1219.8 306.998 1219.8 317.131C1219.8 327.263 1221.33 335.881 1224.41 342.983C1227.49 350.085 1231.85 355.507 1237.48 359.247C1243.11 362.94 1249.77 364.787 1257.44 364.787C1264.4 364.787 1270.34 363.556 1275.26 361.094C1280.24 358.584 1284.02 355.057 1286.63 350.511C1289.28 345.966 1290.61 340.592 1290.61 334.389L1296.86 335.312H1259.36V312.159H1320.22V330.483C1320.22 343.267 1317.52 354.252 1312.12 363.438C1306.73 372.576 1299.29 379.631 1289.82 384.602C1280.35 389.527 1269.51 391.989 1257.3 391.989C1243.66 391.989 1231.68 388.982 1221.36 382.969C1211.04 376.908 1202.99 368.314 1197.21 357.188C1191.48 346.013 1188.62 332.756 1188.62 317.415C1188.62 305.625 1190.32 295.114 1193.73 285.881C1197.19 276.6 1202.02 268.741 1208.22 262.301C1214.42 255.862 1221.64 250.961 1229.88 247.599C1238.12 244.238 1247.04 242.557 1256.66 242.557C1264.89 242.557 1272.57 243.764 1279.67 246.179C1286.77 248.546 1293.07 251.908 1298.56 256.264C1304.1 260.62 1308.62 265.805 1312.12 271.818C1315.63 277.784 1317.88 284.366 1318.87 291.562H1287.62ZM1373.86 392.06C1366.9 392.06 1360.7 390.852 1355.25 388.438C1349.81 385.975 1345.5 382.353 1342.33 377.571C1339.2 372.741 1337.64 366.728 1337.64 359.531C1337.64 353.471 1338.75 348.381 1340.98 344.261C1343.2 340.142 1346.23 336.828 1350.07 334.318C1353.9 331.809 1358.26 329.915 1363.14 328.636C1368.06 327.358 1373.22 326.458 1378.62 325.938C1384.96 325.275 1390.08 324.659 1393.96 324.091C1397.84 323.475 1400.66 322.576 1402.41 321.392C1404.16 320.208 1405.04 318.456 1405.04 316.136V315.71C1405.04 311.212 1403.62 307.732 1400.78 305.27C1397.99 302.808 1394.01 301.577 1388.85 301.577C1383.4 301.577 1379.07 302.784 1375.85 305.199C1372.63 307.566 1370.5 310.549 1369.46 314.148L1341.48 311.875C1342.9 305.246 1345.69 299.517 1349.86 294.688C1354.02 289.811 1359.4 286.07 1365.98 283.466C1372.61 280.814 1380.28 279.489 1388.99 279.489C1395.05 279.489 1400.85 280.199 1406.39 281.619C1411.98 283.04 1416.92 285.241 1421.23 288.224C1425.59 291.207 1429.02 295.043 1431.53 299.73C1434.04 304.37 1435.3 309.934 1435.3 316.42V390H1406.6V374.872H1405.75C1404 378.281 1401.66 381.288 1398.72 383.892C1395.78 386.449 1392.26 388.461 1388.14 389.929C1384.02 391.349 1379.26 392.06 1373.86 392.06ZM1382.53 371.179C1386.98 371.179 1390.91 370.303 1394.32 368.551C1397.73 366.752 1400.4 364.337 1402.34 361.307C1404.28 358.277 1405.25 354.844 1405.25 351.009V339.432C1404.31 340.047 1403 340.616 1401.35 341.136C1399.74 341.61 1397.91 342.06 1395.88 342.486C1393.84 342.865 1391.81 343.22 1389.77 343.551C1387.73 343.835 1385.89 344.096 1384.23 344.332C1380.68 344.853 1377.58 345.682 1374.93 346.818C1372.28 347.955 1370.22 349.493 1368.75 351.435C1367.28 353.329 1366.55 355.696 1366.55 358.537C1366.55 362.656 1368.04 365.805 1371.02 367.983C1374.05 370.114 1377.89 371.179 1382.53 371.179ZM1458.77 390V280.909H1488.1V299.943H1489.24C1491.23 293.172 1494.56 288.059 1499.25 284.602C1503.94 281.098 1509.34 279.347 1515.45 279.347C1516.96 279.347 1518.59 279.441 1520.35 279.631C1522.1 279.82 1523.64 280.08 1524.96 280.412V307.259C1523.54 306.832 1521.58 306.454 1519.07 306.122C1516.56 305.791 1514.26 305.625 1512.18 305.625C1507.73 305.625 1503.75 306.596 1500.25 308.537C1496.79 310.431 1494.04 313.082 1492.01 316.491C1490.02 319.901 1489.02 323.83 1489.02 328.281V390H1458.77ZM1575.73 391.776C1567.44 391.776 1559.94 389.645 1553.21 385.384C1546.54 381.075 1541.23 374.754 1537.3 366.42C1533.42 358.04 1531.48 347.765 1531.48 335.597C1531.48 323.097 1533.49 312.704 1537.52 304.418C1541.54 296.084 1546.89 289.858 1553.57 285.739C1560.29 281.572 1567.65 279.489 1575.65 279.489C1581.76 279.489 1586.85 280.53 1590.92 282.614C1595.04 284.65 1598.36 287.206 1600.87 290.284C1603.42 293.314 1605.37 296.297 1606.69 299.233H1607.62V244.545H1637.8V390H1607.97V372.528H1606.69C1605.27 375.559 1603.26 378.565 1600.65 381.548C1598.1 384.484 1594.76 386.922 1590.64 388.864C1586.57 390.805 1581.6 391.776 1575.73 391.776ZM1585.31 367.699C1590.19 367.699 1594.31 366.373 1597.67 363.722C1601.08 361.023 1603.69 357.259 1605.48 352.429C1607.33 347.599 1608.25 341.941 1608.25 335.455C1608.25 328.968 1607.35 323.333 1605.56 318.551C1603.76 313.769 1601.15 310.076 1597.74 307.472C1594.33 304.867 1590.19 303.565 1585.31 303.565C1580.34 303.565 1576.15 304.915 1572.74 307.614C1569.33 310.312 1566.75 314.053 1565 318.835C1563.25 323.617 1562.37 329.157 1562.37 335.455C1562.37 341.799 1563.25 347.41 1565 352.287C1566.8 357.116 1569.38 360.904 1572.74 363.651C1576.15 366.349 1580.34 367.699 1585.31 367.699ZM1712.39 392.131C1701.17 392.131 1691.51 389.858 1683.41 385.312C1675.36 380.72 1669.16 374.233 1664.81 365.852C1660.45 357.424 1658.27 347.457 1658.27 335.952C1658.27 324.73 1660.45 314.882 1664.81 306.406C1669.16 297.931 1675.29 291.326 1683.2 286.591C1691.16 281.856 1700.48 279.489 1711.18 279.489C1718.38 279.489 1725.08 280.649 1731.28 282.969C1737.53 285.241 1742.98 288.674 1747.62 293.267C1752.31 297.86 1755.95 303.636 1758.56 310.597C1761.16 317.509 1762.46 325.606 1762.46 334.886V343.196H1670.35V324.446H1733.98C1733.98 320.09 1733.04 316.231 1731.14 312.869C1729.25 309.508 1726.62 306.88 1723.26 304.986C1719.94 303.045 1716.08 302.074 1711.68 302.074C1707.09 302.074 1703.02 303.139 1699.47 305.27C1695.96 307.353 1693.22 310.17 1691.23 313.722C1689.24 317.225 1688.22 321.132 1688.17 325.44V343.267C1688.17 348.665 1689.17 353.329 1691.16 357.259C1693.19 361.188 1696.06 364.219 1699.75 366.349C1703.44 368.48 1707.82 369.545 1712.89 369.545C1716.25 369.545 1719.33 369.072 1722.12 368.125C1724.92 367.178 1727.31 365.758 1729.29 363.864C1731.28 361.97 1732.8 359.65 1733.84 356.903L1761.82 358.75C1760.4 365.473 1757.49 371.345 1753.09 376.364C1748.73 381.335 1743.1 385.218 1736.18 388.011C1729.32 390.758 1721.39 392.131 1712.39 392.131ZM1812.46 326.932V390H1782.21V280.909H1811.04V300.156H1812.32C1814.74 293.812 1818.78 288.793 1824.47 285.099C1830.15 281.359 1837.04 279.489 1845.13 279.489C1852.71 279.489 1859.31 281.146 1864.95 284.46C1870.58 287.775 1874.96 292.509 1878.09 298.665C1881.21 304.773 1882.77 312.064 1882.77 320.54V390H1852.52V325.938C1852.57 319.261 1850.86 314.053 1847.41 310.312C1843.95 306.525 1839.19 304.631 1833.13 304.631C1829.06 304.631 1825.46 305.507 1822.33 307.259C1819.26 309.01 1816.84 311.567 1815.09 314.929C1813.39 318.243 1812.51 322.244 1812.46 326.932Z" fill="#0B3448"/>
<path d="M1939.15 390L1899.31 244.545H1912.8L1945.75 369.616H1946.89L1979.85 244.545H1995.19L2028.14 369.616H2029.28L2062.23 244.545H2075.8L2035.95 390H2021.75L1988.01 266.634H1987.09L1953.35 390H1939.15ZM2131.12 392.273C2120.94 392.273 2112.14 389.905 2104.7 385.17C2097.27 380.388 2091.52 373.783 2087.44 365.355C2083.42 356.88 2081.41 347.126 2081.41 336.094C2081.41 325.109 2083.42 315.355 2087.44 306.832C2091.52 298.262 2097.13 291.562 2104.28 286.733C2111.47 281.856 2119.78 279.418 2129.21 279.418C2135.12 279.418 2140.83 280.507 2146.32 282.685C2151.81 284.815 2156.74 288.106 2161.1 292.557C2165.5 296.96 2168.98 302.524 2171.54 309.247C2174.09 315.923 2175.37 323.83 2175.37 332.969V339.219H2090.14V328.068H2162.44C2162.44 321.061 2161.02 314.763 2158.18 309.176C2155.39 303.542 2151.48 299.091 2146.46 295.824C2141.49 292.557 2135.74 290.923 2129.21 290.923C2122.29 290.923 2116.21 292.77 2110.95 296.463C2105.7 300.156 2101.58 305.033 2098.6 311.094C2095.66 317.154 2094.17 323.783 2094.12 330.98V337.656C2094.12 346.321 2095.61 353.897 2098.6 360.384C2101.63 366.823 2105.91 371.818 2111.45 375.369C2116.99 378.92 2123.55 380.696 2131.12 380.696C2136.28 380.696 2140.81 379.891 2144.69 378.281C2148.62 376.671 2151.91 374.517 2154.56 371.818C2157.26 369.072 2159.3 366.065 2160.67 362.798L2172.67 366.705C2171.01 371.297 2168.29 375.535 2164.5 379.418C2160.76 383.3 2156.08 386.425 2150.44 388.793C2144.85 391.113 2138.42 392.273 2131.12 392.273ZM2205.86 390V244.545H2218.57V301.719H2219.71C2221.13 298.452 2223.16 295.09 2225.81 291.634C2228.51 288.177 2232.04 285.289 2236.4 282.969C2240.8 280.601 2246.34 279.418 2253.02 279.418C2261.97 279.418 2269.83 281.785 2276.6 286.52C2283.37 291.207 2288.65 297.789 2292.43 306.264C2296.22 314.692 2298.12 324.517 2298.12 335.739C2298.12 347.008 2296.22 356.88 2292.43 365.355C2288.69 373.83 2283.44 380.436 2276.67 385.17C2269.94 389.905 2262.13 392.273 2253.23 392.273C2246.6 392.273 2241.06 391.089 2236.61 388.722C2232.21 386.354 2228.66 383.442 2225.96 379.986C2223.26 376.482 2221.17 373.073 2219.71 369.759H2218.14V390H2205.86ZM2218.36 335.526C2218.36 344.332 2219.66 352.145 2222.26 358.963C2224.92 365.734 2228.7 371.061 2233.63 374.943C2238.6 378.778 2244.61 380.696 2251.67 380.696C2258.91 380.696 2265.04 378.707 2270.06 374.73C2275.08 370.705 2278.89 365.284 2281.5 358.466C2284.1 351.648 2285.4 344.001 2285.4 335.526C2285.4 327.145 2284.1 319.593 2281.5 312.869C2278.94 306.146 2275.15 300.819 2270.13 296.889C2265.11 292.912 2258.96 290.923 2251.67 290.923C2244.56 290.923 2238.53 292.841 2233.56 296.676C2228.63 300.464 2224.87 305.72 2222.26 312.443C2219.66 319.119 2218.36 326.813 2218.36 335.526Z" fill="#4A687B"/>
<defs>
<linearGradient id="paint0_linear_664_18" x1="259" y1="146.5" x2="259" y2="459" gradientUnits="userSpaceOnUse">
<stop stop-color="#36C494"/>
<stop offset="1" stop-color="#083143"/>
</linearGradient>
</defs>
</svg>
